<svg width="114" height="101" viewBox="0 0 114 101" fill="none" xmlns="http://www.w3.org/2000/svg">
<g clip-path="url(#clip0_7937_5603)">
<path d="M23.4315 43.1951C28.1537 35.2054 32.8817 27.2156 37.6038 19.2259C39.1042 16.7276 40.5686 14.2052 42.1048 11.7371C43.8382 8.95514 45.0815 5.79304 47.6518 3.64475C54.9322 -2.45013 64.5557 -0.712184 69.4332 7.47668C71.7644 11.3871 74.1434 15.2673 76.4984 19.1656C79.7202 25.4234 83.5457 31.3372 87.1082 37.3899C89.0031 40.6002 90.6229 43.9977 93.0019 46.9063C97.2099 54.89 101.95 62.5599 106.642 70.2539C107.096 71.0988 107.551 71.9436 108.005 72.7824C110.031 76.548 112.811 79.9152 113.839 84.1998C115.046 93.8972 108.943 100.964 99.2662 100.97C71.1188 100.994 42.9715 100.952 14.8182 100.994C9.10982 101 4.66267 98.8094 1.85332 93.7766C-0.962014 88.7317 -0.447962 83.723 2.46301 78.823C9.20546 67.4901 15.8881 56.1271 22.5887 44.7761C22.8936 44.2632 23.1446 43.7201 23.4196 43.1951H23.4315ZM56.9764 95.8886C70.9096 95.8886 84.8368 95.8766 98.77 95.9007C100.898 95.9007 102.924 95.5809 104.747 94.4102C109.123 91.6041 109.99 86.4808 106.851 81.1583C92.9481 57.5935 79.0269 34.0347 65.0698 10.506C60.8258 3.34906 53.0971 3.43354 48.8711 10.5905C34.9439 34.1493 21.0466 57.7202 7.09545 81.2549C5.14684 84.5377 4.50128 87.7963 6.3961 91.2421C8.35069 94.7904 11.5426 95.9249 15.4099 95.9128C29.2654 95.8585 43.1209 95.8947 56.9764 95.8947V95.8886Z" fill="#C31F15"/>
<path d="M56.976 95.8896C43.1205 95.8896 29.265 95.8594 15.4095 95.9077C11.5422 95.9198 8.35027 94.7853 6.39568 91.237C4.50086 87.7913 5.14641 84.5326 7.09503 81.2498C21.0462 57.7212 34.9435 34.1503 48.8647 10.5915C53.0907 3.43451 60.8194 3.35606 65.0634 10.507C79.0265 34.0356 92.9417 57.5945 106.845 81.1593C109.983 86.4818 109.116 91.5991 104.741 94.4112C102.918 95.5819 100.892 95.9017 98.7637 95.9017C84.8305 95.8836 70.9032 95.8896 56.97 95.8896H56.976ZM67.6994 31.3503C67.6994 31.1813 67.6994 30.5054 67.6994 29.8296C67.6516 23.4812 62.774 18.901 56.3663 19.2027C50.4607 19.4803 45.9 24.7243 46.3064 30.7528C47.0118 41.3133 47.7231 51.8798 48.3866 62.4462C48.6974 67.3402 52.3017 71.0213 56.9581 71.0816C61.6144 71.136 65.4459 67.5937 65.7806 62.6695C66.474 52.4048 67.0478 42.134 67.6994 31.3563V31.3503ZM57.0597 89.6801C61.7579 89.674 65.422 85.9869 65.416 81.2619C65.416 76.555 61.728 72.8739 57.0238 72.8799C52.4033 72.886 48.5898 76.7058 48.6137 81.2981C48.6436 85.9266 52.4332 89.6861 57.0597 89.6801Z" fill="#FFE2E2"/>
<path d="M67.6997 31.3487C67.0481 42.1264 66.4743 52.3972 65.781 62.6619C65.4462 67.5861 61.6147 71.1284 56.9584 71.0741C52.302 71.0137 48.6917 67.3327 48.3869 62.4387C47.7174 51.8722 47.0121 41.3118 46.3067 30.7453C45.9063 24.7168 50.461 19.4728 56.3666 19.1952C62.7743 18.8995 67.6519 23.4737 67.6997 29.822C67.6997 30.4979 67.6997 31.1737 67.6997 31.3427V31.3487ZM62.3201 33.135C62.3619 33.135 62.3978 33.135 62.4396 33.135C62.4396 32.0125 62.4396 30.8841 62.4396 29.7617C62.4396 28.6091 62.1527 27.547 61.4414 26.6116C59.9769 24.6746 57.592 23.8961 55.2728 24.6323C53.0671 25.3323 51.4712 27.4142 51.5847 29.9608C51.8537 35.9591 52.2721 41.9454 52.6427 47.9437C52.9356 52.7351 53.1687 57.5386 53.5752 62.324C53.7725 64.6533 55.2369 65.8482 57.2274 65.7275C59.0923 65.6189 60.3475 64.2852 60.485 62.1309C61.1067 52.4696 61.7044 42.8083 62.3141 33.147L62.3201 33.135Z" fill="#C31F15"/>
<path d="M57.0594 89.6791C52.433 89.6851 48.6433 85.9256 48.6135 81.2971C48.5836 76.7048 52.3971 72.8849 57.0236 72.8789C61.7278 72.8729 65.4158 76.5539 65.4158 81.2609C65.4158 85.9799 61.7576 89.667 57.0594 89.6791ZM56.9638 84.5075C58.6136 84.5376 60.078 83.1014 60.1378 81.4057C60.1976 79.6617 58.8885 78.2014 57.191 78.1109C55.4217 78.0203 53.8496 79.5169 53.8616 81.2911C53.8675 82.9566 55.338 84.4773 56.9698 84.5075H56.9638Z" fill="#C31F15"/>
<path d="M62.32 33.1361C61.7163 42.7974 61.1186 52.4587 60.491 62.12C60.3535 64.2803 59.0982 65.614 57.2333 65.7166C55.2369 65.8312 53.7784 64.6424 53.5811 62.3131C53.1747 57.5277 52.9416 52.7302 52.6487 47.9328C52.2841 41.9405 51.8597 35.9482 51.5907 29.9499C51.4771 27.4033 53.0671 25.3274 55.2787 24.6214C57.5919 23.8852 59.9829 24.6636 61.4473 26.6007C62.1586 27.5421 62.4396 28.5981 62.4455 29.7507C62.4455 30.8732 62.4455 32.0016 62.4455 33.124C62.4037 33.124 62.3678 33.124 62.326 33.124L62.32 33.1361Z" fill="#FDFDFE"/>
<path d="M56.9637 84.5079C55.3319 84.4778 53.8615 82.9571 53.8555 81.2915C53.8495 79.5174 55.4156 78.0208 57.1849 78.1113C58.8824 78.1958 60.1915 79.6622 60.1317 81.4062C60.0719 83.1019 58.6075 84.5381 56.9577 84.5079H56.9637Z" fill="#FDFDFE"/>
</g>
<defs>
<clipPath id="clip0_7937_5603">
<rect width="114" height="101" fill="white"/>
</clipPath>
</defs>
</svg>
