<svg width="88" height="109" viewBox="0 0 88 109" fill="none" xmlns="http://www.w3.org/2000/svg">
<g clip-path="url(#clip0_7937_5611)">
<path d="M66.3066 100.773C66.1975 101.912 65.549 102.311 64.4406 102.308C45.8395 102.293 27.2384 102.296 8.63728 102.293C7.26062 102.293 6.84202 101.892 6.82139 100.534C6.80075 99.2052 6.77127 97.8768 6.83318 96.5514C6.8715 95.7219 6.67694 95.3765 5.7631 95.4296C4.3717 95.5123 2.97146 95.4414 1.57417 95.4532C0.580732 95.4621 0.0678012 94.9868 0.0353745 93.9949C0.023583 93.6259 0.023583 93.2569 0.023583 92.8879C0.023583 68.6224 0.0294788 44.351 0 20.0825C0 18.8427 0.341954 17.9512 1.22926 17.0744C6.65041 11.7165 12.0244 6.3114 17.3925 0.900363C18.0086 0.277489 18.6365 0 19.5179 0C36.2795 0.0206641 53.0441 0.01476 69.8057 0.0177121C71.5096 0.0177121 71.7985 0.312913 71.8014 2.00441C71.8014 3.29444 71.8486 4.58742 71.7837 5.87745C71.7454 6.67745 72.0373 6.88113 72.786 6.85161C74.0713 6.79848 75.3595 6.83095 76.6448 6.83685C78.2985 6.84571 78.6199 7.17338 78.6199 8.86784C78.6199 27.8994 78.6199 46.931 78.6199 65.9627C78.6199 71.5685 78.6081 77.1744 78.6316 82.7803C78.6346 83.7633 78.331 84.4275 77.3081 84.6193C76.064 84.3684 76.0051 83.4445 76.0051 82.4172C76.0169 59.1524 76.0139 35.8876 76.0051 12.6228C76.0051 11.5984 76.4384 10.2641 75.8312 9.6265C75.1649 8.92688 73.8089 9.49957 72.7624 9.38149C71.9812 9.29293 71.769 9.59993 71.7778 10.3675C71.8162 14.0545 71.7955 17.7416 71.7955 21.4286C71.7955 39.7518 71.7926 58.0778 71.8044 76.401C71.8044 77.4164 71.6806 78.2607 70.4601 78.4172C69.2161 78.1308 69.2043 77.1744 69.2043 76.1707C69.2102 52.0557 69.2043 27.9408 69.2309 3.8258C69.2309 2.83983 69.0157 2.52987 67.9721 2.53282C52.428 2.56825 36.8809 2.5712 21.3367 2.53282C20.2666 2.53282 20.0868 2.88116 20.0957 3.84056C20.1399 8.48703 20.1163 13.1335 20.1163 17.777C20.1163 19.8818 19.8451 20.1593 17.7963 20.1593C13.1298 20.1593 8.4604 20.1799 3.79392 20.1416C2.88892 20.1327 2.53812 20.2714 2.54107 21.3194C2.57644 44.7702 2.5735 68.2209 2.54697 91.6717C2.54697 92.64 2.77985 92.9027 3.75854 92.8997C14.2323 92.8614 24.7061 92.8761 35.18 92.8761C42.6027 92.8761 50.0255 92.882 57.4512 92.8702C58.4033 92.8702 59.2346 92.9794 59.4705 94.1101C59.3437 95.2584 58.6008 95.4709 57.5927 95.4709C42.4229 95.4562 27.2502 95.4591 12.0804 95.4591C9.39193 95.4591 9.38309 95.4591 9.39488 98.1396C9.40078 99.8871 9.18853 99.6923 10.8983 99.6923C28.6416 99.6982 46.3819 99.6982 64.1251 99.6864C65.0655 99.6864 65.8968 99.7602 66.3007 100.776L66.3066 100.773ZM4.73134 17.5113C8.72571 17.5113 12.6582 17.4936 16.5877 17.5261C17.3217 17.532 17.5133 17.3017 17.5074 16.5873C17.475 12.9357 17.4956 9.28702 17.4868 5.63539C17.4868 5.33133 17.5841 5.0007 17.4161 4.74683C13.1976 8.99182 8.99987 13.2132 4.73134 17.5084V17.5113Z" fill="#C31F15"/>
<path d="M77.2903 88.6166C80.1792 91.542 83.0858 94.4497 85.9541 97.3958C87.823 99.3146 88.4539 101.62 87.6757 104.197C86.9239 106.683 85.2053 108.259 82.679 108.82C80.247 109.36 78.1157 108.675 76.3322 106.922C74.2422 104.861 72.1521 102.801 70.0591 100.74C67.9573 98.4438 65.7376 96.2652 63.4883 94.1161C62.5951 93.1892 61.7166 92.2505 60.8087 91.3413C59.6237 90.1546 58.7275 88.7641 58.7246 87.0815C58.7216 85.7413 58.079 84.9502 57.2536 84.0764C56.6021 83.3856 56.1864 83.4328 55.4347 83.9229C50.0578 87.4387 44.1591 88.7966 37.7887 87.9612C23.182 86.0513 13.0059 72.4454 15.5676 57.8448C17.5015 46.8131 24.0959 39.5364 34.9028 36.8117C45.6212 34.1077 54.7832 37.3933 61.7255 46.0279C68.7208 54.7245 69.0775 66.9665 62.9724 76.4188C62.7808 76.717 62.4359 76.962 62.4949 77.3783C62.548 77.7502 64.6203 79.5686 65.0065 79.5539C67.1584 79.4742 68.9301 80.3214 70.4689 81.7561C72.7417 84.0439 75.0175 86.3287 77.2903 88.6166ZM41.2083 38.5593C28.1904 38.5593 17.7668 49.0331 17.7343 62.0927C17.7049 74.5178 27.4594 85.6734 41.3026 85.6409C54.3941 85.6114 64.6734 75.2233 64.6586 62.1075C64.6409 48.3128 53.5392 38.4767 41.2083 38.5593ZM81.1461 106.299C83.0062 106.296 84.3681 105.416 85.0196 103.799C85.6711 102.178 85.4294 100.658 84.206 99.418C78.9057 94.0542 73.576 88.7199 68.2462 83.3856C67.4002 82.5384 66.3183 82.0247 65.1539 82.2579C63.9482 82.5 63.2407 81.9922 62.489 81.21C60.7144 79.3679 60.7055 79.4004 58.9663 81.2779C58.6391 81.6321 58.6066 81.8358 58.9574 82.1664C59.6001 82.7716 60.2073 83.4122 60.8293 84.038C61.2686 84.4778 61.5398 84.9649 61.3806 85.6203C61.0121 87.1376 61.5693 88.3656 62.6158 89.4136C67.804 94.6268 73.007 99.8312 78.1864 105.053C79.0443 105.918 80.0259 106.364 81.1461 106.299Z" fill="#C31F15"/>
<path d="M77.2901 88.6159C75.0173 86.3281 72.7416 84.0432 70.4688 81.7554C70.4688 80.6425 70.4688 79.5296 70.4688 78.4167C71.6892 78.2602 71.813 77.416 71.813 76.4005C71.8012 58.0773 71.8041 39.7513 71.8041 21.4281C71.8041 17.7411 71.8248 14.054 71.7865 10.3669C71.7776 9.59942 71.9869 9.29241 72.771 9.38097C73.8175 9.49905 75.1736 8.92636 75.8398 9.62599C76.447 10.2666 76.0137 11.5979 76.0137 12.6223C76.0225 35.8871 76.0225 59.1519 76.0137 82.4167C76.0137 83.444 76.0727 84.365 77.3167 84.6189C77.3078 85.9502 77.3019 87.2845 77.2931 88.6159H77.2901Z" fill="#FFE2E2"/>
<path d="M63.4883 94.1133C65.7375 96.2624 67.9572 98.441 70.0591 100.738C68.8062 100.749 67.5563 100.761 66.3035 100.773C65.9026 99.7576 65.0683 99.6838 64.1279 99.6838C46.3847 99.6956 28.6444 99.6956 10.9011 99.6897C9.19132 99.6897 9.40357 99.8875 9.39768 98.1369C9.38883 95.4565 9.39473 95.4565 12.0832 95.4565C27.253 95.4565 42.4257 95.4506 57.5955 95.4683C58.6007 95.4683 59.3435 95.2558 59.4733 94.1074C60.8116 94.1074 62.147 94.1104 63.4853 94.1133H63.4883Z" fill="#FFE2E2"/>
<path d="M63.4883 94.1125C62.15 94.1125 60.8146 94.1095 59.4763 94.1066C59.2404 92.9759 58.4091 92.8667 57.457 92.8667C50.0342 92.8785 42.6115 92.8726 35.1858 92.8726C24.712 92.8726 14.2382 92.8579 3.76435 92.8962C2.78565 92.8992 2.54982 92.6364 2.55277 91.6682C2.58225 68.2174 2.58225 44.7667 2.54688 21.3159C2.54688 20.2679 2.89472 20.1292 3.79972 20.1381C8.46621 20.1794 13.1327 20.1558 17.8021 20.1558C19.8509 20.1558 20.1221 19.8783 20.1221 17.7735C20.1221 13.127 20.1457 8.48057 20.1015 3.83706C20.0926 2.87765 20.2725 2.52636 21.3425 2.52932C36.8867 2.56769 52.4338 2.56769 67.9779 2.52932C69.0185 2.52932 69.2367 2.83632 69.2367 3.8223C69.2101 27.9373 69.219 52.0522 69.2101 76.1672C69.2101 77.1738 69.2219 78.1273 70.4659 78.4137C70.4659 79.5266 70.4659 80.6395 70.4659 81.7524C68.9271 80.3177 67.1555 79.4705 65.0035 79.5502C64.6174 79.565 62.5479 77.7465 62.4919 77.3746C62.433 76.9583 62.7749 76.7133 62.9695 76.4152C69.0745 66.9628 68.7179 54.7208 61.7225 46.0242C54.7773 37.3896 45.6153 34.104 34.8998 36.808C24.0958 39.5328 17.4985 46.8095 15.5647 57.8411C13.003 72.4418 23.1791 86.0476 37.7858 87.9575C44.1561 88.79 50.0519 87.4321 55.4318 83.9192C56.1835 83.4291 56.5991 83.3789 57.2506 84.0727C58.076 84.9465 58.7187 85.7406 58.7216 87.0778C58.7246 88.7575 59.6207 90.1509 60.8058 91.3376C61.7137 92.2468 62.5922 93.1855 63.4854 94.1125H63.4883ZM44.6573 14.4525C39.5103 14.4525 34.3633 14.4525 29.2163 14.4525C28.9215 14.4525 28.6238 14.4259 28.3349 14.4731C27.6864 14.5765 27.2648 14.9425 27.2059 15.6303C27.144 16.3742 27.5272 16.8288 28.2199 16.9942C28.5707 17.0768 28.9481 17.0591 29.3165 17.0591C39.5722 17.0621 49.8279 17.0591 60.0865 17.0591C60.4166 17.0591 60.7556 17.0768 61.074 17.0089C61.7668 16.8643 62.1972 16.4244 62.1647 15.6953C62.1323 14.972 61.6931 14.5588 60.9797 14.4672C60.6908 14.4318 60.393 14.4525 60.0983 14.4525C54.9513 14.4525 49.8043 14.4525 44.6573 14.4525ZM44.6661 10.2341C49.7719 10.2341 54.8746 10.2341 59.9803 10.2341C60.2751 10.2341 60.5699 10.2547 60.8618 10.2223C61.6076 10.1396 62.1117 9.76469 62.1293 8.9647C62.147 8.10271 61.6223 7.71304 60.8264 7.62744C60.5729 7.60087 60.3135 7.61858 60.057 7.61858C49.8102 7.61858 39.5634 7.61858 29.3165 7.62153C28.9156 7.62153 28.5 7.61563 28.1197 7.71895C27.5331 7.87836 27.2059 8.30345 27.2147 8.94403C27.2206 9.58757 27.5743 9.992 28.1521 10.1544C28.4941 10.2518 28.8773 10.2282 29.2428 10.2282C34.3839 10.2311 39.525 10.2282 44.6691 10.2282L44.6661 10.2341ZM52.3925 23.9343C55.0721 23.9343 57.7518 23.9255 60.4314 23.9402C61.3364 23.9432 62.0645 23.7188 62.1647 22.6797C62.2443 21.8384 61.5722 21.3307 60.4225 21.3307C55.0633 21.3248 49.704 21.3336 44.3448 21.3218C43.4369 21.3218 42.7117 21.5373 42.6144 22.5794C42.5348 23.4266 43.1981 23.9284 44.3537 23.9314C47.0333 23.9402 49.7129 23.9314 52.3925 23.9314V23.9343ZM52.2746 30.8066C55.0279 30.8066 57.7783 30.8155 60.5316 30.8007C61.64 30.7948 62.2915 30.2015 62.15 29.3365C62.0026 28.4361 61.3629 28.1823 60.5404 28.1852C57.6044 28.1911 54.6683 28.1852 51.7322 28.1852C49.2353 28.1852 46.7414 28.1764 44.2446 28.1911C43.1214 28.197 42.5024 28.7638 42.6321 29.6524C42.7647 30.5705 43.4192 30.8066 44.2328 30.8037C46.9124 30.8007 49.592 30.8037 52.2687 30.8037L52.2746 30.8066Z" fill="#FDFEFE"/>
<path d="M4.73145 17.5115C8.99997 13.2164 13.1977 8.99499 17.4162 4.75C17.5842 5.00387 17.4869 5.3345 17.4869 5.63855C17.4957 9.29019 17.4751 12.9389 17.5075 16.5905C17.5134 17.3049 17.3248 17.5352 16.5878 17.5292C12.6553 17.4938 8.72582 17.5145 4.73145 17.5145V17.5115Z" fill="#FFE2E2"/>
<path d="M41.2084 38.5591C53.5393 38.4765 64.644 48.3096 64.6587 62.1073C64.6735 75.2231 54.3942 85.6082 41.3027 85.6407C27.4595 85.6732 17.705 74.5175 17.7344 62.0925C17.7669 49.0358 28.1876 38.5591 41.2084 38.5591ZM60.1485 62.1161C60.1514 51.5273 51.7264 43.0255 41.2231 43.0226C30.7552 43.0226 22.2034 51.5804 22.1946 62.0748C22.1828 72.5958 30.6579 81.0946 41.1848 81.1153C51.7588 81.1389 60.1426 72.7375 60.1485 62.1161Z" fill="#FFE2E2"/>
<path d="M81.1462 106.298C80.0261 106.363 79.0444 105.917 78.1866 105.052C73.0042 99.8303 67.8042 94.6289 62.6159 89.4127C61.5724 88.3618 61.0123 87.1337 61.3807 85.6194C61.5399 84.964 61.2687 84.4769 60.8295 84.0371C60.2045 83.4112 59.5973 82.7707 58.9576 82.1655C58.6068 81.8349 58.6392 81.6312 58.9664 81.2769C60.7027 79.3965 60.7145 79.364 62.4891 81.209C63.2409 81.9913 63.9483 82.4991 65.154 82.257C66.3184 82.0238 67.4003 82.5375 68.2463 83.3847C73.5761 88.719 78.9059 94.0532 84.2061 99.417C85.4295 100.654 85.6712 102.177 85.0198 103.798C84.3683 105.418 83.0064 106.295 81.1462 106.298Z" fill="#FFE2E2"/>
<path d="M44.6571 14.4533C49.8041 14.4533 54.9511 14.4533 60.0981 14.4533C60.3929 14.4533 60.6906 14.4326 60.9795 14.468C61.6929 14.5566 62.1322 14.9728 62.1646 15.6961C62.197 16.4282 61.7666 16.865 61.0739 17.0097C60.7555 17.0776 60.4165 17.0599 60.0863 17.0599C49.8307 17.0599 39.575 17.0599 29.3164 17.0599C28.9509 17.0599 28.5735 17.0776 28.2198 16.9949C27.527 16.8296 27.1438 16.375 27.2057 15.6311C27.2617 14.9433 27.6833 14.5772 28.3348 14.4739C28.6237 14.4296 28.9214 14.4562 29.2162 14.4533C34.3632 14.4533 39.5102 14.4533 44.6571 14.4533Z" fill="#C31F15"/>
<path d="M44.6664 10.2345C39.5253 10.2345 34.3842 10.2345 29.2401 10.2345C28.8746 10.2345 28.4914 10.2581 28.1494 10.1607C27.5716 9.99539 27.2208 9.59391 27.212 8.95038C27.2061 8.30979 27.5304 7.8847 28.117 7.72529C28.4973 7.62197 28.9129 7.62788 29.3138 7.62788C39.5606 7.62197 49.8075 7.62492 60.0543 7.62492C60.3107 7.62492 60.5702 7.60721 60.8237 7.63378C61.6167 7.71939 62.1443 8.11201 62.1266 8.97104C62.1089 9.77103 61.6049 10.1459 60.859 10.2286C60.5672 10.2611 60.2724 10.2404 59.9776 10.2404C54.8719 10.2404 49.7691 10.2404 44.6634 10.2404L44.6664 10.2345Z" fill="#C31F15"/>
<path d="M52.3924 23.9358C49.7128 23.9358 47.0332 23.9417 44.3536 23.9358C43.198 23.9328 42.5348 23.431 42.6143 22.5838C42.7116 21.5417 43.4368 21.3232 44.3447 21.3262C49.704 21.338 55.0632 21.3292 60.4225 21.3351C61.5721 21.3351 62.2443 21.8428 62.1647 22.6841C62.0674 23.7232 61.3363 23.9476 60.4313 23.9446C57.7517 23.9328 55.0721 23.9387 52.3924 23.9387V23.9358Z" fill="#C31F15"/>
<path d="M52.2747 30.8066C49.5951 30.8066 46.9155 30.8066 44.2388 30.8066C43.4252 30.8066 42.7708 30.5734 42.6381 29.6553C42.5084 28.7668 43.1275 28.2 44.2506 28.1941C46.7474 28.1793 49.2413 28.1882 51.7382 28.1882C54.6743 28.1882 57.6104 28.1941 60.5465 28.1882C61.3689 28.1882 62.0086 28.4391 62.156 29.3395C62.2975 30.2044 61.646 30.7978 60.5376 30.8037C57.7843 30.8184 55.0339 30.8096 52.2806 30.8096L52.2747 30.8066Z" fill="#C31F15"/>
<path d="M60.1482 62.117C60.1453 72.7384 51.7615 81.1398 41.1846 81.1162C30.6577 81.0926 22.1826 72.5967 22.1943 62.0757C22.2061 51.5813 30.755 43.0205 41.2229 43.0234C51.7232 43.0234 60.1512 51.5282 60.1482 62.117ZM41.2347 45.6625C32.1434 45.6566 24.8356 52.9658 24.8268 62.0757C24.818 71.1708 32.1493 78.5627 41.1875 78.5715C50.2198 78.5804 57.6013 71.1915 57.6219 62.1229C57.6425 53.0367 50.3082 45.6684 41.2347 45.6625Z" fill="#C31F15"/>
<path d="M41.235 45.6621C50.3086 45.668 57.6429 53.0362 57.6223 62.1225C57.6016 71.194 50.2202 78.58 41.1879 78.5711C32.1497 78.5623 24.8183 71.1704 24.8272 62.0753C24.836 52.9654 32.1438 45.6562 41.235 45.6621ZM34.7409 54.2495C34.1542 54.2111 33.7356 54.4916 33.5028 54.9993C33.2227 55.6133 33.4409 56.1447 33.8919 56.6023C35.4749 58.1963 37.0343 59.8141 38.6527 61.3668C39.2246 61.9159 39.3042 62.2377 38.6792 62.8251C37.0992 64.3129 35.6105 65.8981 34.0599 67.4184C33.4025 68.0649 33.0753 68.7409 33.7386 69.538C34.3105 70.2258 35.0474 70.1195 35.9112 69.2605C37.4264 67.755 38.9504 66.2583 40.4214 64.7144C40.9727 64.1358 41.3117 63.9734 41.9484 64.6642C43.4224 66.2583 44.9995 67.752 46.5265 69.2989C47.1632 69.9453 47.8412 70.2966 48.6342 69.597C49.3004 69.0096 49.2002 68.2627 48.3571 67.4037C46.8065 65.8302 45.2648 64.248 43.67 62.7218C43.1246 62.1993 43.1983 61.9159 43.6936 61.4347C45.2795 59.8967 46.8095 58.3056 48.3777 56.7499C49.0263 56.1063 49.3741 55.4392 48.6814 54.6392C48.1331 54.0045 47.3165 54.1226 46.497 54.9403C44.9317 56.4989 43.3575 58.0487 41.8305 59.6428C41.3529 60.1417 41.0788 60.1181 40.613 59.634C39.0831 58.0428 37.503 56.4989 35.9436 54.9344C35.6046 54.5949 35.2803 54.2318 34.7409 54.2495Z" fill="#FDFEFE"/>
<path d="M34.7377 54.2521C35.2801 54.2314 35.6014 54.5945 35.9404 54.9369C37.4998 56.5015 39.0799 58.0454 40.6098 59.6365C41.0756 60.1207 41.3498 60.1443 41.8273 59.6454C43.3543 58.0513 44.9285 56.5015 46.4938 54.9428C47.3133 54.1251 48.1269 54.0071 48.6782 54.6417C49.3709 55.4447 49.0231 56.1089 48.3745 56.7524C46.8063 58.3081 45.2734 59.8993 43.6904 61.4373C43.1951 61.9184 43.1185 62.2018 43.6668 62.7243C45.2645 64.2476 46.8033 65.8328 48.3539 67.4062C49.1999 68.2623 49.3002 69.0092 48.631 69.5996C47.838 70.2992 47.16 69.9479 46.5233 69.3014C44.9963 67.7546 43.4192 66.2609 41.9452 64.6668C41.3085 63.9789 40.9695 64.1413 40.4182 64.717C38.9443 66.2609 37.4202 67.7575 35.908 69.263C35.0442 70.1221 34.3073 70.2284 33.7354 69.5405C33.0721 68.7435 33.3993 68.0675 34.0567 67.421C35.6043 65.8978 37.096 64.3155 38.676 62.8277C39.301 62.2373 39.2243 61.9184 38.6495 61.3694C37.0311 59.8137 35.4717 58.196 33.8887 56.6048C33.4347 56.1502 33.2195 55.6159 33.4996 55.0019C33.7295 54.4941 34.151 54.2137 34.7347 54.255L34.7377 54.2521Z" fill="#C31F15"/>
</g>
<defs>
<clipPath id="clip0_7937_5611">
<rect width="88" height="109" fill="white"/>
</clipPath>
</defs>
</svg>
